# xmcd
#
# Track frame offsets: 
#        150
#        10951
#        21945
#        30525
#        39415
#        49494
#        59240
#        69125
#        83271
#        106403
#        116422
#        127014
#        136610
#        167236
#        199091
#        207153
#        216447
#        245238
#        258749
#        264434
#        279412
#        302852
#        318549
#
# Disc length: 4614 seconds
#
# Revision: 0
# Processed by: cddbd v1.5.2PL0 Copyright (c) Steve Scherf et al.
# Submitted via: ExactAudioCopy v0.95b4
#
DISCID=57120417
DTITLE=Roy Buchanan - Before and After
DYEAR=1999
DGENRE=Blues
TTITLE0=Mule Train Stomp
TTITLE1=Pretty Please
TTITLE2=How Important Can It Be
TTITLE3=Twin Exhaust
TTITLE4=Hot Toddy
TTITLE5=Am I The One
TTITLE6=Ruby Baby
TTITLE7=Shake The Hand Of A Fool
TTITLE8=Twist Medley (The Twist - Mother's Club Twist)
TTITLE9=When The Saints Go Marching In
TTITLE10=I Found You
TTITLE11=Rambunctious
TTITLE12=Malaguena
TTITLE13=After Hours
TTITLE14=Let's Twist Again
TTITLE15=Peter Gunn
TTITLE16=Park Boulevard Blues
TTITLE17=Chowbay
TTITLE18=Peace Cross
TTITLE19=My Baby Is Sweeter
TTITLE20=Minor Changes
TTITLE21=Custom Made
TTITLE22=My Baby Is Sweeter (alt take)
EXTD=
EXTT0=
EXTT1=
EXTT2=
EXTT3=
EXTT4=
EXTT5=
EXTT6=
EXTT7=
EXTT8=
EXTT9=
EXTT10=
EXTT11=
EXTT12=
EXTT13=
EXTT14=
EXTT15=
EXTT16=
EXTT17=
EXTT18=
EXTT19=
EXTT20=
EXTT21=
EXTT22=
PLAYORDER=
